<svg height="511pt" viewBox="0 -27 511.99932 511" width="511pt" xmlns="http://www.w3.org/2000/svg"><path d="m213.410156 25.089844-206.746094 358.09375c-18.929687 32.789062 4.730469 73.773437 42.589844 73.773437h413.492188c37.859375 0 61.519531-40.984375 42.589844-73.773437l-206.746094-358.09375c-18.929688-32.785156-66.25-32.785156-85.179688 0zm0 0" fill="#65687f"/><path d="m49.253906 415.160156c-2.828125 0-4.980468-1.242187-6.394531-3.691406s-1.414063-4.9375 0-7.386719l206.746094-358.09375c1.414062-2.449219 3.566406-3.691406 6.394531-3.691406s4.980469 1.242187 6.394531 3.691406l206.746094 358.09375c1.417969 2.449219 1.417969 4.933594 0 7.386719-1.414063 2.449219-3.5625 3.691406-6.394531 3.691406zm0 0" fill="#ffe37d"/><g fill="#65687f"><path d="m288.980469 347.046875c0 18.214844-14.765625 32.980469-32.980469 32.980469s-32.980469-14.765625-32.980469-32.980469 14.765625-32.980469 32.980469-32.980469 32.980469 14.765625 32.980469 32.980469zm0 0"/><path d="m265.1875 131.980469h-18.375c-10.71875 0-19.40625 8.691406-19.40625 19.410156v116.414063c0 10.714843 8.6875 19.40625 19.40625 19.40625h18.375c10.71875 0 19.40625-8.691407 19.40625-19.40625v-116.414063c0-10.71875-8.6875-19.410156-19.40625-19.410156zm0 0"/></g></svg>